<svg viewBox="0 0 24 24" fill="none" xmlns="http://www.w3.org/2000/svg">
    <path d="M16.871 22C18.6452 22 19.828 21.5161 20.8817 20.3441C20.957 20.2581 21.0323 20.1721 21.1075 20.086C21.7097 19.4086 22 18.7312 22 18.0861C22 17.3442 21.5806 16.656 20.6774 16.0323L17.6989 13.9571C16.7634 13.3227 15.6882 13.2474 14.828 14.1076L14.0538 14.8711C13.8172 15.1184 13.6022 15.1291 13.3441 14.9678C12.7957 14.613 11.7097 13.6668 10.9677 12.9249C10.2043 12.1614 9.44086 11.3012 9.04301 10.6668C8.88172 10.4088 8.90323 10.2045 9.13978 9.95716L9.91398 9.18297C10.7634 8.33352 10.6989 7.24752 10.0538 6.3228L7.96774 3.32284C7.34409 2.43038 6.65591 2.02178 5.91398 2.00028C5.26882 1.98953 4.5914 2.2906 3.91398 2.89274C3.82796 2.96801 3.74194 3.04327 3.65591 3.11854C2.49462 4.17229 2 5.34432 2 7.13999C2 10.0754 3.77419 13.613 7.08602 16.9248C10.3871 20.2043 13.914 22 16.871 22ZM16.8817 20.3979C14.2796 20.4409 10.9892 18.4947 8.29032 15.8173C5.58065 13.1184 3.55914 9.70985 3.60215 7.11849C3.62366 6.00022 4.01075 5.04325 4.80645 4.35508C4.87097 4.30132 4.93548 4.24756 5 4.1938C5.30108 3.93574 5.62366 3.79595 5.91398 3.79595C6.21505 3.79595 6.47312 3.91423 6.66667 4.2153L8.62366 7.13999C8.83871 7.47332 8.86022 7.83891 8.52688 8.16148L7.65591 9.02169C6.93548 9.74211 6.98925 10.6131 7.49462 11.2905C8.07527 12.0754 9.08602 13.2259 9.88172 14.0216C10.7097 14.8388 11.9462 15.9463 12.7204 16.5162C13.4086 17.0216 14.2688 17.0753 14.9892 16.3549L15.8602 15.484C16.1828 15.1506 16.5376 15.1721 16.871 15.3872L19.7849 17.3334C20.0968 17.5269 20.2043 17.785 20.2043 18.0861C20.2043 18.3764 20.0645 18.699 19.8065 19C19.7527 19.0753 19.6989 19.1291 19.6452 19.1936C18.957 19.9893 17.9892 20.3764 16.8817 20.3979Z" fill="white"/>
</svg>
