<svg viewBox="0 0 356 209" fill="none" xmlns="http://www.w3.org/2000/svg">
    <path fill-rule="evenodd" clip-rule="evenodd" d="M179.024 102.097L99.517 22.7884C98.8561 22.1291 99.323 21 100.256 21H122.759C124.608 21 126.381 21.733 127.689 23.0383L181.489 76.7036L207.624 50.6338C208.284 49.9755 209.41 50.4429 209.41 51.3751V73.8071C209.41 75.6614 208.673 77.4396 207.36 78.7491L183.954 102.097C182.591 103.456 180.386 103.456 179.024 102.097ZM97.7249 73.8064V51.3745C97.7249 50.4423 98.8514 49.9748 99.5114 50.6332L123.596 74.6573C124.909 75.9669 125.646 77.7451 125.646 79.5994V102.031C125.646 102.964 124.52 103.431 123.86 102.773L99.7755 78.7485C98.4627 77.4389 97.7249 75.6608 97.7249 73.8064ZM209.411 129.939V107.451C209.411 105.597 210.149 103.819 211.462 102.509L263.468 50.6332C264.128 49.9748 265.255 50.4423 265.255 51.3745V75.482C265.255 77.3748 264.486 79.1864 263.125 80.5017L211.186 130.692C210.521 131.334 209.411 130.863 209.411 129.939Z" fill="#0A84FF"/>
    <path d="M0.758591 153.549C0.339632 153.549 0 153.889 0 154.308V194.766C0 195.185 0.339633 195.525 0.758591 195.525H7.84964C8.2686 195.525 8.60824 195.185 8.60824 194.766V168.101H8.95666L19.4874 195.042C19.6011 195.333 19.8816 195.525 20.1939 195.525H25.0255C25.335 195.525 25.6135 195.336 25.7292 195.049L36.544 168.204H36.8924V194.766C36.8924 195.185 37.2321 195.525 37.651 195.525H44.7421C45.161 195.525 45.5007 195.185 45.5007 194.766V154.308C45.5007 153.889 45.161 153.549 44.7421 153.549H35.0648C34.757 153.549 34.4797 153.735 34.3629 154.02L22.9963 181.751H22.5044L11.1378 154.02C11.021 153.735 10.7437 153.549 10.4358 153.549H0.758591Z" fill="white"/>
    <path d="M66.9956 195.914C74.3999 195.914 79.5072 192.487 81.0496 187.13C81.1773 186.687 80.8487 186.254 80.3882 186.223L73.7516 185.785C73.4159 185.763 73.1105 185.968 72.9632 186.27C71.9607 188.327 69.8303 189.396 67.1391 189.396C62.7735 189.396 60.0066 186.506 60.0066 181.813V181.792H80.6866C81.1055 181.792 81.4452 181.453 81.4452 181.034V179.394C81.4452 168.696 74.9685 163.408 66.6472 163.408C57.3831 163.408 51.3778 169.987 51.3778 179.702C51.3778 189.683 57.3011 195.914 66.9956 195.914ZM60.0066 176.381C60.191 172.795 62.917 169.925 66.7907 169.925C70.5824 169.925 73.2059 172.631 73.2264 176.381H60.0066Z" fill="white"/>
    <path d="M101.326 207.76C110.324 207.76 116.718 203.661 116.718 195.606V164.576C116.718 164.157 116.379 163.818 115.96 163.818H108.807C108.388 163.818 108.049 164.157 108.049 164.576V169.105H107.721C106.553 166.543 103.991 163.408 98.7231 163.408C91.816 163.408 85.9747 168.778 85.9747 179.497C85.9747 189.97 91.6521 194.848 98.7436 194.848C103.765 194.848 106.573 192.327 107.721 189.724H108.09V195.484C108.09 199.808 105.323 201.489 101.531 201.489C98.0455 201.489 95.6543 200.315 94.6987 198.68C94.5235 198.38 94.2031 198.175 93.8581 198.214L87.7682 198.895C87.3232 198.945 87.0155 199.369 87.1455 199.797C88.5297 204.357 93.3084 207.76 101.326 207.76ZM101.511 188.29C97.2269 188.29 94.8904 184.887 94.8904 179.456C94.8904 174.106 97.1859 170.356 101.511 170.356C105.753 170.356 108.131 173.942 108.131 179.456C108.131 185.01 105.712 188.29 101.511 188.29Z" fill="white"/>
    <path d="M132.644 195.893C137.296 195.893 140.309 193.864 141.846 190.933H142.092V194.54C142.092 194.959 142.432 195.299 142.851 195.299H149.614C150.033 195.299 150.373 194.959 150.373 194.54V174.065C150.373 166.564 144.019 163.408 137.009 163.408C129.84 163.408 125.004 166.666 123.505 171.917C123.379 172.356 123.701 172.786 124.156 172.823L130.752 173.359C131.113 173.388 131.438 173.156 131.58 172.822C132.338 171.037 134.134 169.782 136.968 169.782C139.94 169.782 141.641 171.278 141.641 173.86V173.983C141.641 176.013 139.489 176.279 134.017 176.812C127.786 177.386 122.191 179.476 122.191 186.506C122.191 192.737 126.638 195.893 132.644 195.893ZM135.144 189.868C132.459 189.868 130.533 188.617 130.533 186.219C130.533 183.76 132.562 182.551 135.636 182.12C137.542 181.854 140.658 181.403 141.703 180.706V184.047C141.703 187.347 138.977 189.868 135.144 189.868Z" fill="white"/>
    <path d="M157.146 207.002C157.146 207.421 157.486 207.76 157.905 207.76H165.119C165.538 207.76 165.878 207.421 165.878 207.002V190.257H166.144C167.353 192.881 169.997 195.811 175.08 195.811C182.254 195.811 187.849 190.134 187.849 179.599C187.849 168.778 182.008 163.408 175.101 163.408C169.833 163.408 167.312 166.543 166.144 169.105H165.755V164.576C165.755 164.157 165.415 163.818 164.996 163.818H157.905C157.486 163.818 157.146 164.157 157.146 164.576V207.002ZM165.693 179.558C165.693 173.942 168.071 170.356 172.313 170.356C176.638 170.356 178.933 174.106 178.933 179.558C178.933 185.051 176.597 188.863 172.313 188.863C168.112 188.863 165.693 185.174 165.693 179.558Z" fill="white"/>
    <path d="M207.894 195.914C217.445 195.914 223.389 189.376 223.389 179.681C223.389 169.925 217.445 163.408 207.894 163.408C198.343 163.408 192.399 169.925 192.399 179.681C192.399 189.376 198.343 195.914 207.894 195.914ZM207.935 189.15C203.528 189.15 201.274 185.113 201.274 179.62C201.274 174.127 203.528 170.069 207.935 170.069C212.26 170.069 214.514 174.127 214.514 179.62C214.514 185.113 212.26 189.15 207.935 189.15Z" fill="white"/>
    <path d="M237.797 151.498C237.797 150.846 237.029 150.498 236.538 150.928L229.927 156.729C229.38 157.209 229.066 157.902 229.066 158.63V194.54C229.066 194.959 229.406 195.299 229.825 195.299H237.039C237.458 195.299 237.797 194.959 237.797 194.54V151.498Z" fill="white"/>
    <path d="M244.792 194.54C244.792 194.959 245.131 195.299 245.55 195.299H252.764C253.183 195.299 253.523 194.959 253.523 194.54V164.576C253.523 164.157 253.183 163.818 252.764 163.818H245.55C245.131 163.818 244.792 164.157 244.792 164.576V194.54ZM249.178 159.759C251.781 159.759 253.912 157.771 253.912 155.332C253.912 152.914 251.781 150.926 249.178 150.926C246.595 150.926 244.464 152.914 244.464 155.332C244.464 157.771 246.595 159.759 249.178 159.759Z" fill="white"/>
    <path d="M285.942 169.824C286.103 169.68 286.204 169.471 286.145 169.262C285.604 167.344 280.79 163.408 273.306 163.408C265.251 163.408 259.943 167.138 259.964 173.205C259.943 177.919 262.915 180.972 269.064 182.202L274.516 183.289C277.262 183.842 278.512 184.846 278.553 186.424C278.512 188.29 276.483 189.622 273.429 189.622C270.777 189.622 267.824 188.523 266.675 186.615C266.393 186.147 265.75 185.897 265.304 186.213L260.339 189.734C260.139 189.876 260.011 190.11 260.088 190.344C260.713 192.253 265.628 195.914 273.409 195.914C281.566 195.914 287.407 191.753 287.428 185.543C287.407 180.993 284.436 178.267 278.328 177.017L272.63 175.869C269.699 175.234 268.613 174.229 268.633 172.713C268.613 170.827 270.744 169.597 273.45 169.597C275.925 169.597 279.076 171.348 280.385 173.094C280.734 173.56 281.501 173.774 281.936 173.387L285.942 169.824Z" fill="white"/>
    <path d="M315.323 154.082C315.323 153.663 314.983 153.324 314.564 153.324H307.207C306.788 153.324 306.448 153.663 306.448 154.082V194.54C306.448 194.959 306.788 195.299 307.207 195.299H314.564C314.983 195.299 315.323 194.959 315.323 194.54V154.082Z" fill="white"/>
    <path d="M321.026 159.882C321.026 160.301 321.365 160.641 321.784 160.641H333.877V194.54C333.877 194.959 334.216 195.299 334.635 195.299H341.89C342.309 195.299 342.649 194.959 342.649 194.54V160.641H354.741C355.16 160.641 355.5 160.301 355.5 159.882V154.082C355.5 153.663 355.16 153.324 354.741 153.324H321.784C321.365 153.324 321.026 153.663 321.026 154.082V159.882Z" fill="white"/>
    <g filter="url(#filter0_d_250_25000x2v)">
        <rect x="228.608" y="27.9636" width="3.4902" height="17.4074" rx="1.04706" fill="#64F3D1"/>
        <rect x="240.823" y="27.9631" width="3.4902" height="17.4074" rx="1.04706" fill="#64F3D1"/>
        <rect x="235.588" y="27.9631" width="13.9608" height="3.48147" rx="1.04706" fill="#64F3D1"/>
    </g>
    <defs>
        <filter id="filter0_d_250_25000x2v" x="200.687" y="0.0415649" width="76.7838" height="73.2511" filterUnits="userSpaceOnUse" color-interpolation-filters="sRGB">
            <feFlood flood-opacity="0" result="BackgroundImageFix"/>
            <feColorMatrix in="SourceAlpha" type="matrix" values="0 0 0 0 0 0 0 0 0 0 0 0 0 0 0 0 0 0 127 0" result="hardAlpha"/>
            <feOffset/>
            <feGaussianBlur stdDeviation="13.9608"/>
            <feComposite in2="hardAlpha" operator="out"/>
            <feColorMatrix type="matrix" values="0 0 0 0 0.447059 0 0 0 0 0.960784 0 0 0 0 0.807843 0 0 0 0.5 0"/>
            <feBlend mode="normal" in2="BackgroundImageFix" result="effect1_dropShadow_250_25000"/>
            <feBlend mode="normal" in="SourceGraphic" in2="effect1_dropShadow_250_25000" result="shape"/>
        </filter>
    </defs>
</svg>
