<svg viewBox="0 0 24 24" fill="none" xmlns="http://www.w3.org/2000/svg">
    <path fill-rule="evenodd" clip-rule="evenodd" d="M2 12C2 11.402 2.48479 10.9172 3.0828 10.9172H20.9172C21.5152 10.9172 22 11.402 22 12C22 12.5981 21.5152 13.0828 20.9172 13.0828H3.0828C2.48479 13.0828 2 12.5981 2 12Z" fill="white"/>
    <path fill-rule="evenodd" clip-rule="evenodd" d="M2 5.63065C2 5.03264 2.48479 4.54785 3.0828 4.54785H20.9172C21.5152 4.54785 22 5.03264 22 5.63065C22 6.22867 21.5152 6.71346 20.9172 6.71346H3.0828C2.48479 6.71346 2 6.22867 2 5.63065Z" fill="white"/>
    <path fill-rule="evenodd" clip-rule="evenodd" d="M2 18.3694C2 17.7714 2.48479 17.2866 3.0828 17.2866H20.9172C21.5152 17.2866 22 17.7714 22 18.3694C22 18.9674 21.5152 19.4522 20.9172 19.4522H3.0828C2.48479 19.4522 2 18.9674 2 18.3694Z" fill="white"/>
</svg>
