<svg viewBox="0 0 24 24" fill="none" xmlns="http://www.w3.org/2000/svg">
    <path fill-rule="evenodd" clip-rule="evenodd" d="M16.3137 10.1569C16.3137 13.5572 13.5572 16.3137 10.1569 16.3137C6.75652 16.3137 4 13.5572 4 10.1569C4 6.75652 6.75652 4 10.1569 4C13.5572 4 16.3137 6.75652 16.3137 10.1569ZM16.6966 15.0328C17.7123 13.6726 18.3137 11.985 18.3137 10.1569C18.3137 5.65195 14.6618 2 10.1569 2C5.65195 2 2 5.65195 2 10.1569C2 14.6618 5.65195 18.3137 10.1569 18.3137C11.985 18.3137 13.6726 17.7123 15.0328 16.6966L19.9916 21.6554C20.4511 22.1149 21.196 22.1149 21.6554 21.6554C22.1149 21.196 22.1149 20.4511 21.6554 19.9916L16.6966 15.0328Z" fill="currentColor"/>
</svg>
