<svg width="118" height="15" viewBox="0 0 118 15" fill="none" xmlns="http://www.w3.org/2000/svg">
    <path d="M37.2901 14.1367C38.7181 14.1367 39.6427 13.5139 40.1145 12.6144H40.19V13.7086C40.19 13.8442 40.3 13.9542 40.4357 13.9542H42.4856C42.6213 13.9542 42.7313 13.8442 42.7313 13.7086V7.43741C42.7313 5.13512 40.7813 4.1664 38.63 4.1664C36.4657 4.1664 35.3864 5.20736 34.5852 6.71382C34.5039 6.86664 34.6082 7.04997 34.7807 7.06398L36.6991 7.21979C36.8159 7.22928 36.9212 7.15379 36.9678 7.0462C37.2028 6.50354 37.7527 6.12272 38.6174 6.12272C39.5295 6.12272 40.0516 6.58191 40.0516 7.3745V7.41225C40.0516 8.03499 39.3911 8.11677 37.7116 8.28032C35.7993 8.45645 34.082 9.09807 34.082 11.2557C34.082 13.168 35.447 14.1367 37.2901 14.1367ZM38.0576 12.2873C37.2335 12.2873 36.6422 11.9036 36.6422 11.1676C36.6422 10.4128 37.265 10.0416 38.2085 9.90953C38.7935 9.82775 39.7497 9.68937 40.0705 9.47549V10.5008C40.0705 11.5136 39.2339 12.2873 38.0576 12.2873Z" fill="white" fill-opacity="0.85"/>
    <path d="M44.8103 13.7086C44.8103 13.8442 44.9203 13.9542 45.056 13.9542H47.0933C47.229 13.9542 47.339 13.8442 47.339 13.7086V6.39949H50.6981V13.7086C50.6981 13.8442 50.8081 13.9542 50.9438 13.9542H53.0126C53.1483 13.9542 53.2583 13.8442 53.2583 13.7086V4.53791C53.2583 4.40221 53.1483 4.29221 53.0126 4.29221H45.056C44.9203 4.29221 44.8103 4.40221 44.8103 4.53791V13.7086Z" fill="white" fill-opacity="0.85"/>
    <path d="M59.7625 14.143C62.6939 14.143 64.5181 12.1363 64.5181 9.16097C64.5181 6.16675 62.6939 4.1664 59.7625 4.1664C56.8312 4.1664 55.007 6.16675 55.007 9.16097C55.007 12.1363 56.8312 14.143 59.7625 14.143ZM59.7751 12.0671C58.4227 12.0671 57.7307 10.8279 57.7307 9.1421C57.7307 7.45628 58.4227 6.21078 59.7751 6.21078C61.1024 6.21078 61.7943 7.45628 61.7943 9.1421C61.7943 10.8279 61.1024 12.0671 59.7751 12.0671Z" fill="white" fill-opacity="0.85"/>
    <path d="M65.6929 13.71C65.6937 13.8451 65.8035 13.9542 65.9386 13.9542H66.4996C68.5502 13.9542 69.6385 12.5955 69.802 9.34969L69.953 6.39949H72.337V13.7086C72.337 13.8442 72.447 13.9542 72.5827 13.9542H74.6452C74.7809 13.9542 74.8909 13.8442 74.8909 13.7086V4.53791C74.8909 4.40221 74.7809 4.29221 74.6452 4.29221H67.7806C67.6484 4.29221 67.5399 4.39679 67.5351 4.52888L67.3865 8.56968C67.2921 11.0166 66.9147 11.8281 66.0026 11.8281H65.929C65.7927 11.8281 65.6825 11.939 65.6833 12.0752L65.6929 13.71Z" fill="white" fill-opacity="0.85"/>
    <path d="M79.5285 10.4191V4.53791C79.5285 4.40221 79.4185 4.29221 79.2828 4.29221H77.214C77.0783 4.29221 76.9683 4.40221 76.9683 4.53791V13.7086C76.9683 13.8442 77.0783 13.9542 77.214 13.9542H79.4857C79.5743 13.9542 79.6561 13.9065 79.6997 13.8292L83.0952 7.80854V13.7086C83.0952 13.8442 83.2052 13.9542 83.3409 13.9542H85.4034C85.5391 13.9542 85.6491 13.8442 85.6491 13.7086V4.53791C85.6491 4.40221 85.5391 4.29221 85.4034 4.29221H83.1501C83.0617 4.29221 82.9801 4.33971 82.9365 4.4166L79.5285 10.4191Z" fill="white" fill-opacity="0.85"/>
    <path d="M92.1628 14.143C94.5435 14.143 95.9371 12.7865 96.1319 12.1595C96.1576 12.0768 96.11 11.996 96.0355 11.9517L94.0737 10.7846C94.0138 10.7489 93.9363 10.7795 93.9124 10.845C93.5608 11.8053 92.7285 12.0231 92.1942 12.0231C90.9424 12.0231 90.131 10.9726 90.131 9.12323C90.131 7.29902 90.9487 6.25481 92.1942 6.25481C93.1157 6.25481 93.7323 6.97668 93.9239 7.86166C93.9409 7.94037 94.0337 7.97881 94.0987 7.93126L96.0516 6.50229C96.1148 6.45602 96.1431 6.3838 96.1041 6.31586C95.8313 5.84077 94.4088 4.1664 92.1502 4.1664C89.2189 4.1664 87.4072 6.1982 87.4072 9.16097C87.4072 12.0986 89.1874 14.143 92.1628 14.143Z" fill="white" fill-opacity="0.85"/>
    <path d="M105.067 1.31723C105.067 1.18154 104.957 1.07153 104.822 1.07153H102.589C102.454 1.07153 102.344 1.18153 102.344 1.31723V13.7086C102.344 13.8442 102.454 13.9542 102.589 13.9542H104.822C104.957 13.9542 105.067 13.8442 105.067 13.7086V1.31723Z" fill="white" fill-opacity="0.85"/>
    <path d="M106.818 3.07151C106.818 3.2072 106.928 3.3172 107.063 3.3172H110.762V13.7086C110.762 13.8442 110.872 13.9542 111.008 13.9542H113.208C113.344 13.9542 113.454 13.8442 113.454 13.7086V3.3172H117.153C117.288 3.3172 117.398 3.2072 117.398 3.07151V1.31723C117.398 1.18153 117.288 1.07153 117.153 1.07153H107.063C106.928 1.07153 106.818 1.18153 106.818 1.31723V3.07151Z" fill="white" fill-opacity="0.85"/>
    <path d="M0.491788 1.07153C0.356095 1.07153 0.246094 1.18153 0.246094 1.31723V13.7086C0.246094 13.8442 0.356095 13.9542 0.491788 13.9542H2.64236C2.77806 13.9542 2.88806 13.8442 2.88806 13.7086V5.53771H2.99499L6.26719 13.7367C6.30446 13.8301 6.39485 13.8913 6.49538 13.8913H7.9617C8.06212 13.8913 8.15243 13.8302 8.18978 13.737L11.4619 5.56916H11.5688V13.7086C11.5688 13.8442 11.6788 13.9542 11.8145 13.9542H13.9651C14.1008 13.9542 14.2108 13.8442 14.2108 13.7086V1.31723C14.2108 1.18154 14.1008 1.07153 13.9651 1.07153H11.0165C10.9168 1.07153 10.827 1.13179 10.7892 1.22405L7.30391 9.72711H7.15294L3.66767 1.22405C3.62986 1.13179 3.54004 1.07153 3.44034 1.07153H0.491788Z" fill="white" fill-opacity="0.85"/>
    <path d="M20.8078 14.143C23.0737 14.143 24.6387 13.0973 25.117 11.4613C25.1589 11.3178 25.0525 11.1777 24.9033 11.1678L22.8909 11.035C22.7822 11.0279 22.6834 11.0942 22.6351 11.1919C22.3257 11.8175 21.674 12.1426 20.8518 12.1426C19.512 12.1426 18.6628 11.2557 18.6628 9.81517V9.80888H24.9968C25.1325 9.80888 25.2425 9.69888 25.2425 9.56319V9.07291C25.2425 5.78932 23.2548 4.1664 20.7009 4.1664C17.8576 4.1664 16.0145 6.18562 16.0145 9.16726C16.0145 12.2307 17.8324 14.143 20.8078 14.143ZM18.6628 8.14822C18.7194 7.0474 19.556 6.16675 20.7449 6.16675C21.9086 6.16675 22.7138 6.99708 22.7201 8.14822H18.6628Z" fill="white" fill-opacity="0.85"/>
    <path d="M33.9816 4.69674C34.1168 4.53709 34.0034 4.29221 33.7941 4.29221H27.2369C27.1013 4.29221 26.9913 4.40221 26.9913 4.53791V13.7086C26.9913 13.8442 27.1013 13.9542 27.237 13.9542H29.3498C29.4855 13.9542 29.5955 13.8442 29.5955 13.7086V6.39949H32.425C32.4972 6.39949 32.5658 6.36772 32.6124 6.31263L33.9816 4.69674Z" fill="white" fill-opacity="0.85"/>
</svg>
